<svg width="246" height="42" viewBox="0 0 246 42" fill="none" xmlns="http://www.w3.org/2000/svg">
<path d="M27.8142 17.6881L27.2594 17.7855C27.0928 17.8147 26.9815 17.9729 27.0109 18.1387L27.1087 18.6908C27.1381 18.8567 27.297 18.9674 27.4637 18.9382L28.0185 18.8408C28.1851 18.8116 28.2964 18.6534 28.267 18.4876L28.1692 17.9355C28.1398 17.7696 27.9809 17.6589 27.8142 17.6881Z" fill="#0038FF"/>
<path d="M28.8191 17.7338L28.5846 18.3114C28.5142 18.4849 28.5984 18.6823 28.7727 18.7524L29.3531 18.9858C29.5274 19.0559 29.7259 18.9721 29.7963 18.7986L30.0308 18.221C30.1012 18.0475 30.017 17.8501 29.8427 17.78L29.2623 17.5466C29.088 17.4765 28.8895 17.5603 28.8191 17.7338Z" fill="#0038FF"/>
<path d="M30.7587 18.4133L30.1954 18.8205C30.0266 18.9426 29.9892 19.1777 30.1118 19.3457L30.521 19.9062C30.6437 20.0742 30.8799 20.1114 31.0487 19.9894L31.612 19.5821C31.7808 19.4601 31.8182 19.225 31.6956 19.057L31.2863 18.4965C31.1637 18.3285 30.9274 18.2912 30.7587 18.4133Z" fill="#0038FF"/>
<path d="M32.1864 20.1872L31.4162 20.2408C31.1845 20.2569 31.0098 20.457 31.026 20.6876L31.0798 21.454C31.096 21.6846 31.297 21.8585 31.5287 21.8423L32.2989 21.7888C32.5306 21.7726 32.7053 21.5726 32.6891 21.342L32.6353 20.5756C32.6191 20.345 32.4181 20.1711 32.1864 20.1872Z" fill="#0038FF"/>
<path d="M31.093 22.4881L30.6898 23.2427C30.5688 23.4692 30.6552 23.7504 30.8828 23.8708L31.641 24.2721C31.8686 24.3925 32.1512 24.3065 32.2722 24.08L32.6754 23.3254C32.7964 23.0989 32.71 22.8177 32.4824 22.6972L31.7242 22.296C31.4966 22.1756 31.214 22.2616 31.093 22.4881Z" fill="#0038FF"/>
<path d="M30.0906 24.2241L29.2632 24.6995C29.0152 24.842 28.9303 25.1574 29.0734 25.4042L29.5511 26.2276C29.6943 26.4743 30.0113 26.5588 30.2592 26.4164L31.0866 25.941C31.3345 25.7986 31.4195 25.4831 31.2763 25.2363L30.7986 24.4129C30.6555 24.1662 30.3385 24.0817 30.0906 24.2241Z" fill="#0038FF"/>
<path d="M26.4614 25.789L26.4244 26.843C26.4133 27.1597 26.6622 27.4253 26.9804 27.4364L28.0395 27.4732C28.3578 27.4843 28.6247 27.2365 28.6358 26.9198L28.6728 25.8658C28.6839 25.5492 28.435 25.2835 28.1168 25.2724L27.0577 25.2356C26.7394 25.2245 26.4725 25.4723 26.4614 25.789Z" fill="#0038FF"/>
<path d="M23.7748 24.6211L23.1158 25.5933C22.9181 25.885 22.9955 26.281 23.2886 26.4778L24.2655 27.1335C24.5586 27.3303 24.9566 27.2533 25.1543 26.9616L25.8132 25.9894C26.0109 25.6977 25.9336 25.3017 25.6404 25.1049L24.6635 24.4492C24.3704 24.2524 23.9725 24.3294 23.7748 24.6211Z" fill="#0038FF"/>
<path d="M21.9327 21.9462L20.7369 22.4761C20.3778 22.6352 20.2164 23.0538 20.3762 23.4111L20.9086 24.6012C21.0685 24.9585 21.4891 25.1192 21.8482 24.9601L23.044 24.4302C23.4031 24.2711 23.5645 23.8525 23.4047 23.4952L22.8723 22.3051C22.7124 21.9478 22.2918 21.7871 21.9327 21.9462Z" fill="#0038FF"/>
<path d="M19.4454 18.8118L19.243 20.2447C19.1822 20.675 19.4835 21.0729 19.916 21.1334L21.3558 21.3348C21.7882 21.3953 22.1881 21.0955 22.2488 20.6651L22.4512 19.2322C22.512 18.8019 22.2107 18.404 21.7782 18.3435L20.3384 18.1421C19.906 18.0816 19.5061 18.3815 19.4454 18.8118Z" fill="#0038FF"/>
<path d="M21.2922 13.9344L20.2531 15.1667C19.9412 15.5366 19.9897 16.0881 20.3614 16.3985L21.5997 17.4326C21.9714 17.7429 22.5255 17.6947 22.8374 17.3248L23.8765 16.0924C24.1884 15.7225 24.1399 15.1711 23.7682 14.8607L22.5299 13.8266C22.1582 13.5163 21.604 13.5645 21.2922 13.9344Z" fill="#0038FF"/>
<path d="M25.914 10.4197L24.2064 10.9719C23.6936 11.1377 23.413 11.6858 23.5796 12.1961L24.1344 13.8955C24.301 14.4059 24.8518 14.6851 25.3646 14.5193L27.0722 13.9672C27.585 13.8013 27.8657 13.2532 27.699 12.7429L27.1442 11.0435C26.9776 10.5332 26.4268 10.2539 25.914 10.4197Z" fill="#0038FF"/>
<path d="M29.1 10.1249L28.6175 12.0506C28.4726 12.6292 28.8264 13.2152 29.4078 13.3595L31.3428 13.8396C31.9243 13.9839 32.5131 13.6318 32.6581 13.0532L33.1406 11.1274C33.2855 10.5488 32.9317 9.9628 32.3503 9.81853L30.4152 9.3384C29.8338 9.19413 29.2449 9.54625 29.1 10.1249Z" fill="#0038FF"/>
<path d="M35.5267 11.4045L33.9318 12.9373C33.4532 13.3973 33.4398 14.1562 33.902 14.6325L35.443 16.2206C35.9052 16.6969 36.6678 16.7101 37.1464 16.2502L38.7414 14.7174C39.22 14.2574 39.2333 13.4984 38.7711 13.0221L37.2301 11.4341C36.7679 10.9578 36.0053 10.9446 35.5267 11.4045Z" fill="#0038FF"/>
<path d="M40.8259 16.3777L38.4155 16.8876C37.6923 17.0406 37.2307 17.748 37.3844 18.4677L37.8968 20.8665C38.0505 21.5862 38.7613 22.0456 39.4845 21.8927L41.895 21.3828C42.6181 21.2298 43.0798 20.5224 42.9261 19.8027L42.4137 17.4039C42.26 16.6842 41.5491 16.2248 40.8259 16.3777Z" fill="#0038FF"/>
<path d="M38.396 24.1238L37.46 26.683C37.1789 27.4516 37.5771 28.3013 38.3493 28.5811L40.9209 29.5125C41.6932 29.7922 42.5471 29.396 42.8282 28.6275L43.7641 26.0683C44.0452 25.2997 43.647 24.45 42.8748 24.1702L40.3032 23.2388C39.5309 22.959 38.677 23.3553 38.396 24.1238Z" fill="#0038FF"/>
<path d="M36.0051 30.0438L33.6081 31.9076C32.8888 32.4668 32.7612 33.5005 33.3232 34.2163L35.196 36.6018C35.758 37.3176 36.7966 37.4446 37.5159 36.8853L39.913 35.0215C40.6323 34.4623 40.7598 33.4286 40.1979 32.7128L38.3251 30.3273C37.7631 29.6114 36.7244 29.4845 36.0051 30.0438Z" fill="#0038FF"/>
<path d="M30.2485 34.2214L26.889 34.5728C25.8799 34.6783 25.1478 35.578 25.2539 36.5823L25.607 39.9256C25.7131 40.9298 26.6171 41.6584 27.6262 41.5528L30.9857 41.2014C31.9948 41.0959 32.7269 40.1962 32.6208 39.1919L32.2677 35.8487C32.1617 34.8444 31.2576 34.1158 30.2485 34.2214Z" fill="#0038FF"/>
<path d="M16.2508 34.0823L14.6054 37.4397C14.1111 38.4482 14.5319 39.6645 15.5453 40.1564L18.919 41.7939C19.9324 42.2858 21.1546 41.867 21.6488 40.8585L23.2943 37.5011C23.7885 36.4926 23.3677 35.2763 22.3543 34.7844L18.9806 33.1469C17.9673 32.655 16.7451 33.0738 16.2508 34.0823Z" fill="#0038FF"/>
<path d="M9.24011 26.4525L5.70302 28.6521C4.6409 29.3125 4.3179 30.7048 4.98159 31.7618L7.19181 35.2819C7.8555 36.3389 9.25454 36.6603 10.3167 35.9998L13.8538 33.8003C14.9159 33.1398 15.2389 31.7475 14.5752 30.6905L12.365 27.1705C11.7013 26.1135 10.3022 25.792 9.24011 26.4525Z" fill="#0038FF"/>
<path d="M7.15545 15.1549H2.52226C1.13033 15.1549 0.00195312 16.2778 0.00195312 17.663V22.2739C0.00195312 23.6591 1.13033 24.782 2.52226 24.782H7.15545C8.54738 24.782 9.67576 23.6591 9.67576 22.2739V17.663C9.67576 16.2778 8.54738 15.1549 7.15545 15.1549Z" fill="#0038FF"/>
<path d="M28.5404 23.063L27.9856 23.1604C27.8189 23.1896 27.7077 23.3478 27.737 23.5136L27.8349 24.0657C27.8643 24.2316 28.0232 24.3423 28.1898 24.3131L28.7446 24.2157C28.9113 24.1865 29.0225 24.0283 28.9931 23.8625L28.8953 23.3104C28.8659 23.1445 28.707 23.0338 28.5404 23.063Z" fill="#0038FF"/>
<path d="M26.2089 23.2025L25.9744 23.7801C25.904 23.9535 25.9882 24.151 26.1625 24.2211L26.7429 24.4544C26.9172 24.5245 27.1156 24.4407 27.1861 24.2672L27.4206 23.6897C27.491 23.5162 27.4068 23.3187 27.2325 23.2486L26.6521 23.0153C26.4777 22.9452 26.2793 23.029 26.2089 23.2025Z" fill="#0038FF"/>
<path d="M24.9534 22.0128L24.3901 22.4201C24.2213 22.5421 24.1839 22.7772 24.3066 22.9452L24.7158 23.5058C24.8384 23.6738 25.0747 23.711 25.2435 23.589L25.8067 23.1817C25.9755 23.0596 26.0129 22.8245 25.8903 22.6566L25.4811 22.096C25.3584 21.928 25.1222 21.8908 24.9534 22.0128Z" fill="#0038FF"/>
<path d="M24.4735 20.1579L23.7034 20.2115C23.4716 20.2277 23.2969 20.4277 23.3131 20.6583L23.367 21.4247C23.3832 21.6553 23.5842 21.8292 23.8159 21.8131L24.586 21.7595C24.8178 21.7433 24.9925 21.5433 24.9763 21.3127L24.9224 20.5463C24.9062 20.3157 24.7052 20.1418 24.4735 20.1579Z" fill="#0038FF"/>
<path d="M23.7294 17.9217L23.3263 18.6763C23.2053 18.9028 23.2917 19.1841 23.5192 19.3045L24.2775 19.7057C24.5051 19.8262 24.7877 19.7402 24.9087 19.5137L25.3119 18.7591C25.4329 18.5326 25.3465 18.2514 25.1189 18.1309L24.3606 17.7297C24.133 17.6093 23.8504 17.6953 23.7294 17.9217Z" fill="#0038FF"/>
<path d="M25.7455 15.5856L24.9181 16.061C24.6701 16.2034 24.5852 16.5189 24.7283 16.7656L25.206 17.5891C25.3492 17.8358 25.6662 17.9203 25.9141 17.7779L26.7415 17.3025C26.9894 17.16 27.0744 16.8445 26.9312 16.5978L26.4535 15.7744C26.3104 15.5277 25.9934 15.4431 25.7455 15.5856Z" fill="#0038FF"/>
<path d="M27.3681 15.0802L27.3311 16.1342C27.32 16.4509 27.5689 16.7165 27.8871 16.7276L28.9462 16.7644C29.2645 16.7755 29.5314 16.5277 29.5425 16.211L29.5795 15.157C29.5906 14.8404 29.3417 14.5747 29.0235 14.5636L27.9644 14.5268C27.6461 14.5157 27.3792 14.7635 27.3681 15.0802Z" fill="#0038FF"/>
<path d="M30.8517 15.0392L30.1928 16.0114C29.9951 16.3031 30.0724 16.6991 30.3656 16.8959L31.3425 17.5516C31.6356 17.7484 32.0335 17.6714 32.2313 17.3797L32.8902 16.4075C33.0879 16.1158 33.0106 15.7198 32.7174 15.523L31.7405 14.8673C31.4474 14.6705 31.0495 14.7475 30.8517 15.0392Z" fill="#0038FF"/>
<path d="M34.1555 17.042L32.9597 17.5719C32.6006 17.7309 32.4392 18.1496 32.599 18.5069L33.1315 19.6969C33.2913 20.0543 33.712 20.2149 34.071 20.0559L35.2668 19.526C35.6259 19.3669 35.7873 18.9483 35.6275 18.591L35.0951 17.4009C34.9352 17.0436 34.5146 16.8829 34.1555 17.042Z" fill="#0038FF"/>
<path d="M33.7544 21.3352L33.552 22.7681C33.4913 23.1984 33.7925 23.5963 34.225 23.6568L35.6648 23.8582C36.0972 23.9187 36.4971 23.6188 36.5578 23.1885L36.7602 21.7556C36.821 21.3253 36.5197 20.9274 36.0872 20.8669L34.6474 20.6655C34.215 20.605 33.8152 20.9049 33.7544 21.3352Z" fill="#0038FF"/>
<path d="M33.1696 24.6764L32.1305 25.9088C31.8186 26.2786 31.8671 26.8301 32.2388 27.1405L33.4771 28.1746C33.8488 28.4849 34.4029 28.4367 34.7148 28.0668L35.7539 26.8344C36.0658 26.4646 36.0173 25.9131 35.6456 25.6027L34.4073 24.5686C34.0356 24.2583 33.4814 24.3065 33.1696 24.6764Z" fill="#0038FF"/>
<path d="M30.6379 27.48L28.9303 28.0321C28.4175 28.198 28.1368 28.7461 28.3035 29.2564L28.8583 30.9558C29.0249 31.4661 29.5757 31.7454 30.0885 31.5796L31.7961 31.0274C32.3089 30.8616 32.5895 30.3135 32.4229 29.8032L31.8681 28.1038C31.7015 27.5934 31.1507 27.3142 30.6379 27.48Z" fill="#0038FF"/>
<path d="M23.346 28.9486L22.8635 30.8743C22.7185 31.4529 23.0724 32.0389 23.6538 32.1832L25.5888 32.6633C26.1703 32.8076 26.7591 32.4555 26.9041 31.8769L27.3865 29.9511C27.5315 29.3725 27.1777 28.7865 26.5963 28.6422L24.6612 28.1621C24.0798 28.0178 23.4909 28.37 23.346 28.9486Z" fill="#0038FF"/>
<path d="M18.8567 25.7519L17.2618 27.2847C16.7832 27.7447 16.7699 28.5037 17.2321 28.9799L18.773 30.568C19.2352 31.0443 19.9979 31.0575 20.4765 30.5976L22.0714 29.0648C22.55 28.6048 22.5633 27.8459 22.1011 27.3696L20.5602 25.7815C20.098 25.3052 19.3353 25.292 18.8567 25.7519Z" fill="#0038FF"/>
<path d="M16.5197 20.1081L14.1092 20.618C13.386 20.771 12.9244 21.4784 13.0781 22.1981L13.5905 24.5969C13.7442 25.3166 14.4551 25.776 15.1782 25.6231L17.5887 25.1132C18.3118 24.9602 18.7735 24.2528 18.6198 23.5331L18.1074 21.1343C17.9537 20.4146 17.2428 19.9552 16.5197 20.1081Z" fill="#0038FF"/>
<path d="M13.1751 13.374L12.2391 15.9332C11.9581 16.7017 12.3562 17.5515 13.1285 17.8312L15.7001 18.7627C16.4723 19.0424 17.3262 18.6462 17.6073 17.8776L18.5433 15.3184C18.8244 14.5499 18.4262 13.7001 17.654 13.4204L15.0823 12.4889C14.3101 12.2092 13.4562 12.6055 13.1751 13.374Z" fill="#0038FF"/>
<path d="M18.4893 5.11648L16.0922 6.98026C15.3729 7.53952 15.2454 8.57317 15.8074 9.28899L17.6802 11.6745C18.2421 12.3903 19.2808 12.5173 20.0001 11.958L22.3972 10.0942C23.1165 9.53496 23.244 8.5013 22.682 7.78548L20.8092 5.39996C20.2472 4.68414 19.2086 4.55723 18.4893 5.11648Z" fill="#0038FF"/>
<path d="M28.3782 0.448543L25.0187 0.799935C24.0096 0.905487 23.2775 1.80516 23.3836 2.80942L23.7367 6.1527C23.8427 7.15695 24.7468 7.8855 25.7559 7.77995L29.1154 7.42855C30.1245 7.323 30.8566 6.42332 30.7505 5.41907L30.3974 2.07579C30.2914 1.07154 29.3873 0.342991 28.3782 0.448543Z" fill="#0038FF"/>
<path d="M34.3574 1.1415L32.7119 4.4989C32.2177 5.5074 32.6385 6.72369 33.6519 7.21557L37.0256 8.85308C38.0389 9.34496 39.2611 8.92616 39.7554 7.91766L41.4008 4.56026C41.8951 3.55176 41.4743 2.33547 40.4609 1.84359L37.0872 0.206076C36.0738 -0.2858 34.8516 0.133003 34.3574 1.1415Z" fill="#0038FF"/>
<path d="M45.6848 6.00363L42.1477 8.20319C41.0856 8.86368 40.7626 10.256 41.4263 11.313L43.6365 14.833C44.3002 15.89 45.6993 16.2115 46.7614 15.551L50.2985 13.3514C51.3606 12.6909 51.6836 11.2986 51.0199 10.2416L48.8097 6.72158C48.146 5.66458 46.7469 5.34315 45.6848 6.00363Z" fill="#0038FF"/>
<path d="M53.4816 17.2193H48.8484C47.4565 17.2193 46.3281 18.3422 46.3281 19.7274V24.3383C46.3281 25.7235 47.4565 26.8464 48.8484 26.8464H53.4816C54.8736 26.8464 56.002 25.7235 56.002 24.3383V19.7274C56.002 18.3422 54.8736 17.2193 53.4816 17.2193Z" fill="#0038FF"/>
<path d="M204.436 16.2284H199.476V35.561H204.436V16.2284Z" fill="white"/>
<path d="M201.957 6.84742C200.231 6.84742 198.822 8.27479 198.822 10.0308C198.822 11.7868 200.228 13.2142 201.957 13.2142C203.687 13.2142 205.093 11.7868 205.093 10.0308C205.093 8.27479 203.687 6.84742 201.957 6.84742Z" fill="white"/>
<path d="M95.4122 18.4495C93.7741 16.9756 91.7101 16.169 89.5576 16.169C84.5417 16.169 80.4596 20.5308 80.4596 25.8951C80.4596 31.2593 84.5417 35.6211 89.5576 35.6211C91.7035 35.6211 93.7643 34.8178 95.3991 33.3506L95.9823 35.5813H100.15V16.2055H96.0183L95.4122 18.4462V18.4495ZM94.947 25.8552C94.947 28.6801 92.6864 30.9805 89.9049 30.9805C87.1234 30.9805 84.8628 28.6834 84.8628 25.8552C84.8628 23.027 87.1234 20.73 89.9049 20.73C92.6864 20.73 94.947 23.027 94.947 25.8552Z" fill="white"/>
<path d="M129.727 6H124.767V35.5599H129.727V6Z" fill="white"/>
<path d="M69.2013 12.2071H80.573V7.16817H64.002V35.5596H69.2013V23.5597H78.6696V18.6004H69.2013V12.2071Z" fill="white"/>
<path d="M148.855 18.6525C147.991 17.7031 146.932 16.9927 145.717 16.5413C144.508 16.0898 143.152 15.8641 141.677 15.8641C140.203 15.8641 138.886 16.1064 137.674 16.5844C136.462 17.0624 135.41 17.7595 134.545 18.6491C133.683 19.5388 133.005 20.6143 132.537 21.8458C132.068 23.074 131.829 24.4416 131.829 25.9121C131.829 27.3827 132.075 28.7934 132.556 30.0216C133.041 31.2532 133.732 32.322 134.607 33.1984C135.482 34.0747 136.553 34.7685 137.792 35.2598C139.027 35.751 140.413 36 141.92 36C143.522 35.9734 144.989 35.7311 146.287 35.283C147.597 34.8315 148.715 34.1112 149.599 33.1585L150.028 32.7436L146.759 29.3245L146.241 29.8092C145.815 30.2175 145.255 30.5528 144.573 30.8084C143.889 31.0673 143.073 31.1967 142.156 31.1967C140.783 31.1967 139.646 30.8714 138.781 30.2341C137.995 29.6565 137.444 28.8864 137.143 27.9437H151.526V27.7212C151.562 25.6034 151.332 23.7545 150.847 22.2342C150.389 20.8002 149.72 19.5919 148.859 18.6491L148.855 18.6525ZM137.045 24.0765C137.297 23.074 137.788 22.2541 138.516 21.6333C139.302 20.9595 140.367 20.6209 141.681 20.6209C142.994 20.6209 144.059 20.9628 144.845 21.6333C145.569 22.2541 146.064 23.074 146.316 24.0765H137.045Z" fill="white"/>
<path d="M165.378 16.3297C165.355 16.3231 165.336 16.3164 165.323 16.3164C165.031 16.2368 164.631 16.1339 164.127 16.0144C163.609 15.8915 163.032 15.8285 162.41 15.8285C161.43 15.8285 160.516 16.031 159.697 16.4359C158.999 16.7778 158.364 17.206 157.8 17.704L157.345 16.2334H153.587V35.566H158.583L158.577 22.972C158.921 22.3346 159.35 21.8301 159.855 21.4716C160.382 21.0965 160.946 20.9073 161.529 20.9073C161.958 20.9073 162.413 20.967 162.882 21.0832C163.35 21.1994 163.714 21.3222 163.989 21.4583L164.641 21.6973L165.886 16.509L165.365 16.333L165.378 16.3297Z" fill="white"/>
<path d="M113.373 15.7924C111.355 15.7924 109.383 16.4895 107.765 17.7642V6H102.801V35.5599H106.592L107.165 33.5084C108.885 35.1151 111.077 35.9947 113.37 35.9947C118.579 35.9947 122.815 31.4636 122.815 25.8936C122.815 20.3235 118.579 15.7924 113.37 15.7924H113.373ZM118.599 25.8936C118.599 28.8346 116.243 31.228 113.35 31.228C110.458 31.228 108.102 28.8346 108.102 25.8936C108.102 22.9525 110.458 20.5592 113.35 20.5592C116.243 20.5592 118.599 22.9525 118.599 25.8936Z" fill="white"/>
<path d="M180.764 18.4495C179.125 16.9756 177.061 16.169 174.909 16.169C169.893 16.169 165.811 20.5308 165.811 25.8951C165.811 31.2593 169.893 35.6211 174.909 35.6211C177.055 35.6211 179.116 34.8178 180.75 33.3506L181.334 35.5813H185.501V16.2055H181.37L180.764 18.4462V18.4495ZM180.295 25.8552C180.295 28.6801 178.035 30.9805 175.253 30.9805C172.471 30.9805 170.211 28.6834 170.211 25.8552C170.211 23.027 172.471 20.73 175.253 20.73C178.035 20.73 180.295 23.027 180.295 25.8552Z" fill="white"/>
<path d="M216.428 15.7493C211.271 15.7493 207.074 20.2372 207.074 25.7541C207.074 31.2711 211.271 35.759 216.428 35.759C221.585 35.759 225.782 31.2711 225.782 25.7541C225.782 20.2372 221.585 15.7493 216.428 15.7493ZM221.611 25.711C221.611 28.6155 219.288 30.9757 216.431 30.9757C213.574 30.9757 211.248 28.6122 211.248 25.711C211.248 22.8098 213.571 20.4463 216.431 20.4463C219.291 20.4463 221.611 22.8098 221.611 25.711Z" fill="white"/>
<path d="M241.042 25.2284V35.5586H246.002V24.4218C246.002 23.0641 245.825 21.8326 245.474 20.767C245.124 19.6982 244.623 18.7787 243.987 18.0318C243.348 17.2849 242.568 16.7106 241.668 16.3223C240.773 15.9372 239.771 15.7413 238.689 15.7413C237.284 15.7413 236.068 16.0301 235.072 16.5945C234.234 17.0725 233.52 17.6998 232.943 18.4666L232.507 16.2227H228.363V35.5553H233.339V25.9155C233.444 24.2956 233.88 23.0375 234.637 22.1745C235.433 21.2616 236.36 20.8069 237.461 20.7803C238.516 20.7803 239.358 21.1255 240.036 21.8392C240.704 22.5429 241.045 23.6848 241.045 25.2251L241.042 25.2284Z" fill="white"/>
<path d="M196.377 30.4424L196.154 29.8416L195.486 30.2466C195.365 30.3428 195.152 30.4723 194.85 30.625C194.294 30.9105 193.674 30.9005 193.35 30.6781C193.193 30.5719 193.062 30.376 192.96 30.1005C192.849 29.7984 192.767 29.3769 192.714 28.8491C192.685 28.557 192.665 28.2184 192.652 27.8499V20.9023H196.875V16.2251H192.652V9.94802H187.764V20.0193L187.754 20.006V29.1711C187.728 31.2822 188.196 32.9453 189.153 34.1104C190.116 35.2855 191.479 35.8963 193.199 35.9229C193.268 35.9229 193.34 35.9229 193.409 35.9229C194.333 35.9229 195.149 35.7536 195.84 35.415C196.57 35.0565 197.075 34.7743 197.367 34.5586L197.799 34.293L196.374 30.4424H196.377Z" fill="white"/>
</svg>
