<svg width="48" height="48" viewBox="0 0 48 48" fill="none" xmlns="http://www.w3.org/2000/svg">
<path d="M32.2528 16.5371C32.2462 16.5242 32.2352 16.5142 32.2218 16.5087C30.673 15.7981 29.0386 15.2914 27.3595 15.0012C27.3443 14.9984 27.3285 15.0005 27.3145 15.0071C27.3005 15.0137 27.2889 15.0246 27.2814 15.0382C27.0589 15.4421 26.8568 15.857 26.6761 16.2813C24.8661 16.0066 23.025 16.0066 21.215 16.2813C21.0331 15.856 20.8278 15.441 20.6002 15.0382C20.5924 15.0249 20.5807 15.0143 20.5668 15.0077C20.5529 15.0011 20.5373 14.9988 20.522 15.0012C18.8427 15.2908 17.2083 15.7975 15.6597 16.5087C15.6464 16.5143 15.6353 16.5239 15.6277 16.5362C12.5309 21.1608 11.6826 25.6718 12.0987 30.1269C12.0999 30.1378 12.1032 30.1484 12.1086 30.158C12.1139 30.1676 12.1211 30.176 12.1298 30.1828C13.933 31.5179 15.95 32.5371 18.0946 33.1967C18.1097 33.2012 18.1258 33.201 18.1408 33.1961C18.1558 33.1912 18.1689 33.1818 18.1784 33.1692C18.639 32.5425 19.0471 31.8788 19.3986 31.185C19.4034 31.1755 19.4062 31.1651 19.4067 31.1544C19.4072 31.1437 19.4055 31.1331 19.4015 31.1232C19.3976 31.1132 19.3917 31.1042 19.384 31.0968C19.3764 31.0893 19.3672 31.0836 19.3572 31.0799C18.7136 30.8336 18.0905 30.5368 17.4938 30.1921C17.483 30.1857 17.4739 30.1768 17.4673 30.1661C17.4608 30.1553 17.4569 30.1432 17.4562 30.1306C17.4555 30.1181 17.4578 30.1055 17.4631 30.0941C17.4683 30.0827 17.4763 30.0727 17.4863 30.0651C17.6119 29.9713 17.7353 29.8747 17.8564 29.7752C17.867 29.7664 17.8798 29.7608 17.8935 29.759C17.9071 29.7571 17.921 29.7591 17.9336 29.7648C21.8429 31.5489 26.0752 31.5489 29.9382 29.7648C29.9508 29.7588 29.9649 29.7565 29.9787 29.7582C29.9925 29.7599 30.0056 29.7654 30.0164 29.7742C30.1377 29.8742 30.2614 29.9712 30.3874 30.0651C30.3975 30.0726 30.4055 30.0825 30.4109 30.0939C30.4162 30.1053 30.4186 30.1178 30.418 30.1304C30.4173 30.1429 30.4136 30.1551 30.4071 30.1659C30.4006 30.1767 30.3916 30.1857 30.3808 30.1921C29.7855 30.5397 29.1618 30.8363 28.5165 31.079C28.5065 31.0828 28.4974 31.0887 28.4898 31.0962C28.4822 31.1038 28.4763 31.1129 28.4725 31.1229C28.4687 31.1329 28.467 31.1436 28.4676 31.1543C28.4682 31.165 28.471 31.1755 28.4759 31.185C28.8333 31.875 29.2408 32.5378 29.6952 33.1681C29.7045 33.1811 29.7175 33.1908 29.7325 33.1959C29.7476 33.201 29.7638 33.2012 29.779 33.1966C31.9275 32.5392 33.9479 31.5199 35.7534 30.1828C35.7622 30.1763 35.7695 30.1681 35.7749 30.1587C35.7803 30.1492 35.7835 30.1387 35.7845 30.1278C36.2827 24.9773 34.9504 20.5033 32.2528 16.5371ZM19.9824 27.4142C18.8055 27.4142 17.8357 26.3341 17.8357 25.0076C17.8357 23.6811 18.7866 22.601 19.9824 22.601C21.1876 22.601 22.148 23.6905 22.1292 25.0075C22.1292 26.3341 21.1782 27.4142 19.9824 27.4142ZM27.9198 27.4142C26.7428 27.4142 25.773 26.3341 25.773 25.0076C25.773 23.6811 26.724 22.601 27.9198 22.601C29.125 22.601 30.0853 23.6905 30.0665 25.0075C30.0665 26.3341 29.125 27.4142 27.9198 27.4142Z" fill="#010821"/>
</svg>
