<svg width="24" height="24" viewBox="0 0 24 24" fill="none" xmlns="http://www.w3.org/2000/svg">
<path d="M22 12C22 6.47715 17.5228 2 12 2C6.47715 2 2 6.47715 2 12C2 17.5228 6.47715 22 12 22V24C5.37258 24 0 18.6274 0 12C0 5.37258 5.37258 0 12 0C18.6274 0 24 5.37258 24 12C24 18.6274 18.6274 24 12 24V22C17.5228 22 22 17.5228 22 12Z" fill="#666F90"/>
<path d="M11 5.5C11 4.94772 11.4477 4.5 12 4.5C12.5523 4.5 13 4.94772 13 5.5V12.0859L15.707 14.793L15.7754 14.8691C16.0957 15.2619 16.0731 15.8409 15.707 16.207C15.3409 16.5731 14.7619 16.5957 14.3691 16.2754L14.293 16.207L11.293 13.207C11.1054 13.0195 11 12.7652 11 12.5V5.5Z" fill="#666F90"/>
</svg>
