<svg width="24" height="24" viewBox="0 0 24 24" fill="none" xmlns="http://www.w3.org/2000/svg">
<path d="M22 12C22 6.47715 17.5228 2 12 2C6.47715 2 2 6.47715 2 12C2 17.5228 6.47715 22 12 22V24C5.37258 24 0 18.6274 0 12C0 5.37258 5.37258 0 12 0C18.6274 0 24 5.37258 24 12C24 18.6274 18.6274 24 12 24V22C17.5228 22 22 17.5228 22 12Z" fill="#666F90"/>
<path d="M15.472 14.5519C15.472 15.0639 15.344 15.5546 15.088 16.0239C14.832 16.4826 14.4534 16.8666 13.952 17.1759C13.4614 17.4852 12.8694 17.6612 12.176 17.7039V18.9999H11.312V17.7039C10.3414 17.6186 9.55204 17.3092 8.94404 16.7759C8.33604 16.2319 8.02671 15.5439 8.01604 14.7119H9.56804C9.61071 15.1599 9.77604 15.5492 10.064 15.8799C10.3627 16.2106 10.7787 16.4186 11.312 16.5039V12.5039C10.5974 12.3226 10.0214 12.1359 9.58404 11.9439C9.14671 11.7519 8.77337 11.4532 8.46404 11.0479C8.15471 10.6426 8.00004 10.0986 8.00004 9.41591C8.00004 8.55191 8.29871 7.83724 8.89604 7.27191C9.50404 6.70658 10.3094 6.39191 11.312 6.32791V4.99991H12.176V6.32791C13.0827 6.40258 13.8134 6.69591 14.368 7.20791C14.9227 7.70924 15.2427 8.36524 15.328 9.17591H13.776C13.7227 8.80258 13.5574 8.46658 13.28 8.16791C13.0027 7.85858 12.6347 7.65591 12.176 7.55991V11.4639C12.88 11.6452 13.4507 11.8319 13.888 12.0239C14.336 12.2052 14.7094 12.4986 15.008 12.9039C15.3174 13.3092 15.472 13.8586 15.472 14.5519ZM9.48804 9.33591C9.48804 9.85858 9.64271 10.2586 9.95204 10.5359C10.2614 10.8132 10.7147 11.0426 11.312 11.2239V7.52791C10.7574 7.58124 10.3147 7.76258 9.98404 8.07191C9.65337 8.37058 9.48804 8.79191 9.48804 9.33591ZM12.176 16.5199C12.752 16.4559 13.2 16.2479 13.52 15.8959C13.8507 15.5439 14.016 15.1226 14.016 14.6319C14.016 14.1092 13.856 13.7092 13.536 13.4319C13.216 13.1439 12.7627 12.9146 12.176 12.7439V16.5199Z" fill="#666F90"/>
</svg>
