<svg width="48" height="48" viewBox="0 0 48 48" fill="none" xmlns="http://www.w3.org/2000/svg">
<path d="M33.5 14H14.8125C14.3631 14 14 14.3631 14 14.8125V33.5C14 33.9494 14.3631 34.3125 14.8125 34.3125H33.5C33.9494 34.3125 34.3125 33.9494 34.3125 33.5V14.8125C34.3125 14.3631 33.9494 14 33.5 14ZM31.1539 19.9287H29.5314C28.2594 19.9287 28.0131 20.533 28.0131 21.4217V23.3793H31.0498L30.6537 26.4439H28.0131V34.3125H24.8469V26.4465H22.1986V23.3793H24.8469V21.1195C24.8469 18.4967 26.449 17.0672 28.79 17.0672C29.9123 17.0672 30.8746 17.151 31.1564 17.1891V19.9287H31.1539Z" fill="#010821"/>
</svg>
