<svg width="48" height="48" viewBox="0 0 48 48" fill="none" xmlns="http://www.w3.org/2000/svg">
<path d="M24.1463 21C22.2826 21 20.7617 22.5209 20.7617 24.3846C20.7617 26.2482 22.2826 27.7691 24.1463 27.7691C26.01 27.7691 27.5309 26.2482 27.5309 24.3846C27.5309 22.5209 26.01 21 24.1463 21Z" fill="#010821"/>
<path d="M34.298 24.1494C34.298 22.7478 34.3107 21.359 34.232 19.9599C34.1533 18.3349 33.7826 16.8927 32.5943 15.7045C31.4035 14.5136 29.9638 14.1455 28.3388 14.0668C26.9373 13.9881 25.5484 14.0008 24.1494 14.0008C22.7478 14.0008 21.359 13.9881 19.9599 14.0668C18.3349 14.1455 16.8927 14.5162 15.7045 15.7045C14.5136 16.8953 14.1455 18.3349 14.0668 19.9599C13.9881 21.3615 14.0008 22.7504 14.0008 24.1494C14.0008 25.5484 13.9881 26.9398 14.0668 28.3388C14.1455 29.9638 14.5162 31.406 15.7045 32.5943C16.8953 33.7851 18.3349 34.1533 19.9599 34.232C21.3615 34.3107 22.7504 34.298 24.1494 34.298C25.5509 34.298 26.9398 34.3107 28.3388 34.232C29.9638 34.1533 31.406 33.7826 32.5943 32.5943C33.7851 31.4035 34.1533 29.9638 34.232 28.3388C34.3133 26.9398 34.298 25.5509 34.298 24.1494ZM24.1468 29.357C21.265 29.357 18.9392 27.0312 18.9392 24.1494C18.9392 21.2676 21.265 18.9418 24.1468 18.9418C27.0287 18.9418 29.3545 21.2676 29.3545 24.1494C29.3545 27.0312 27.0287 29.357 24.1468 29.357ZM29.5677 19.9447C28.8949 19.9447 28.3515 19.4013 28.3515 18.7285C28.3515 18.0556 28.8949 17.5123 29.5677 17.5123C30.2406 17.5123 30.784 18.0556 30.784 18.7285C30.7814 19.4039 30.2406 19.9447 29.5677 19.9447Z" fill="#010821"/>
</svg>
