<svg width="48" height="48" viewBox="0 0 48 48" fill="none" xmlns="http://www.w3.org/2000/svg">
<path d="M35 34H29.984V26.824C29.984 24.946 29.199 23.664 27.474 23.664C26.154 23.664 25.419 24.529 25.078 25.363C24.95 25.663 24.97 26.079 24.97 26.496V34H20C20 34 20.064 21.289 20 20.133H24.97V22.31C25.263 21.358 26.85 20 29.386 20C32.53 20 35 21.995 35 26.29V34ZM15.488 19H15.458C13.967 19 13 17.898 13 16.502C13 15.079 13.995 14 15.516 14C17.036 14 17.97 15.076 18 16.498C18 17.894 17.036 19 15.488 19ZM14 20H18V34H14V20Z" fill="#010821"/>
</svg>
