<svg width="22" height="18" viewBox="0 0 22 18" fill="none" xmlns="http://www.w3.org/2000/svg">
<path d="M19.9785 0.234341C19.9785 0.234341 21.9948 -0.520341 21.8197 1.33113C21.7608 2.09356 21.2469 4.76078 20.844 7.64638L19.4679 16.1935C19.4679 16.1935 19.3511 17.446 18.3435 17.6599C17.336 17.8738 15.8299 16.8873 15.5511 16.6683C15.328 16.504 11.367 14.0369 9.97352 12.833C9.5833 12.5046 9.13849 11.8491 10.0363 11.09L15.9302 5.66583C16.6039 5.0148 17.2811 3.49218 14.4774 5.33325L6.62721 10.4773C6.62721 10.4773 5.73022 11.0185 4.0544 10.5216L0.423471 9.41773C0.423471 9.41773 -0.915537 8.5953 1.38067 7.78722C6.98348 5.24906 13.8728 2.66152 19.9785 0.234341Z" fill="#0038FF"/>
</svg>
