<svg width="48" height="48" viewBox="0 0 48 48" fill="none" xmlns="http://www.w3.org/2000/svg">
<path d="M13 24C13 21.0826 14.1589 18.2847 16.2218 16.2218C18.2847 14.1589 21.0826 13 24 13C26.9174 13 29.7153 14.1589 31.7782 16.2218C33.8411 18.2847 35 21.0826 35 24C35 26.9174 33.8411 29.7153 31.7782 31.7782C29.7153 33.8411 26.9174 35 24 35C21.0826 35 18.2847 33.8411 16.2218 31.7782C14.1589 29.7153 13 26.9174 13 24ZM21.1422 14.9753C19.917 15.363 18.7837 15.9964 17.8116 16.837C18.4256 17.3665 19.1055 17.8193 19.8376 18.1785C20.0003 17.5691 20.186 16.9997 20.3932 16.4794C20.6142 15.93 20.8628 15.4204 21.1422 14.9753ZM16.7342 17.9314C15.4787 19.4306 14.7208 21.2833 14.5655 23.2326H19.1515C19.1868 21.9955 19.3081 20.8107 19.503 19.7148C18.4961 19.2634 17.5627 18.6633 16.7342 17.9344V17.9314ZM26.8578 33.0247C28.0831 32.6365 29.2164 32.0025 30.1884 31.1614C29.5734 30.6292 28.8925 30.1784 28.1624 29.82C28.012 30.3971 27.8264 30.9645 27.6068 31.519C27.3873 32.0685 27.1372 32.5765 26.8578 33.0232V33.0247ZM31.2658 30.064C32.5205 28.5661 33.2784 26.7151 33.4345 24.7674H28.85C28.8182 25.9465 28.7002 27.1218 28.497 28.2837C29.51 28.7395 30.4431 29.3427 31.2658 30.0656V30.064ZM33.4345 23.2326C33.2785 21.2844 32.5206 19.4329 31.2658 17.9344C30.4377 18.6631 29.5049 19.2633 28.4985 19.7148C28.6919 20.8107 28.8132 21.9955 28.85 23.2326H33.4345ZM30.1853 16.837C29.2134 15.9959 28.0801 15.3619 26.8548 14.9738C27.1356 15.4219 27.3858 15.93 27.6053 16.4794C27.814 17.0013 27.9997 17.5691 28.1593 18.1785C28.8894 17.8201 29.5703 17.3692 30.1853 16.837ZM21.1422 33.0262C20.8488 32.5473 20.5982 32.0435 20.3932 31.5206C20.1741 30.966 19.989 30.3986 19.8391 29.8215C19.1091 30.1799 18.4281 30.6308 17.8132 31.163C18.7851 32.0041 19.9184 32.6381 21.1437 33.0262H21.1422ZM16.7357 30.0656C17.5638 29.3369 18.4966 28.7367 19.503 28.2852C19.2997 27.1228 19.1817 25.947 19.15 24.7674H14.567C14.7234 26.7158 15.4818 28.5674 16.7373 30.0656H16.7357ZM24 14.5348C23.7145 14.5348 23.3646 14.6775 22.964 15.0996C22.5649 15.5232 22.1674 16.1771 21.819 17.0488C21.6164 17.5553 21.4353 18.1232 21.2788 18.7433C22.1617 19.007 23.0785 19.1404 24 19.1392C24.947 19.1392 25.8602 19.0011 26.7228 18.7433C26.5804 18.1676 26.3999 17.6021 26.1825 17.0504C25.8326 16.1771 25.4366 15.5232 25.036 15.0996C24.6369 14.6775 24.287 14.5348 24 14.5348ZM20.6863 23.2326H27.3137C27.2853 22.2335 27.1915 21.2373 27.0328 20.2505C26.0465 20.5323 25.0257 20.6749 24 20.6741C22.9748 20.6747 21.9545 20.5322 20.9687 20.2505C20.809 21.2372 20.7141 22.2334 20.6848 23.2326H20.6863ZM20.9687 27.7495C21.9545 27.4679 22.9748 27.3253 24 27.3259C25.0513 27.3259 26.0689 27.4733 27.0328 27.7495C27.1832 26.8225 27.2814 25.8203 27.3137 24.7674H20.6863C20.7186 25.8203 20.8168 26.8241 20.9687 27.7495ZM24 28.8608C23.0546 28.8608 22.1398 28.9989 21.2788 29.2567C21.4338 29.8753 21.6164 30.4431 21.819 30.9496C22.1674 31.8229 22.5634 32.4768 22.964 32.9004C23.3631 33.3224 23.7145 33.4652 24 33.4652C24.287 33.4652 24.6369 33.3224 25.036 32.9004C25.4366 32.4768 25.8341 31.8229 26.1825 30.9512C26.3851 30.4431 26.5662 29.8768 26.7212 29.2567C25.8383 28.993 24.9215 28.8596 24 28.8608Z" fill="#010821"/>
</svg>
