<svg width="48" height="48" viewBox="0 0 48 48" fill="none" xmlns="http://www.w3.org/2000/svg">
<path d="M23.8344 21.3054C24.3996 21.3054 24.8289 21.0972 25.1354 20.6795C25.3695 20.373 25.4782 19.8815 25.4782 19.231V17.0842C25.4782 16.4337 25.3695 15.9551 25.1354 15.6486C24.8276 15.2335 24.3983 15.024 23.8344 15.024C23.2809 15.024 22.8515 15.2322 22.5476 15.6486C22.3135 15.9564 22.2036 16.435 22.2036 17.0855V19.2323C22.2036 19.8828 22.3135 20.3614 22.5476 20.6808C22.8515 21.0972 23.2809 21.3054 23.8344 21.3054ZM23.3067 16.8643C23.3067 16.3005 23.4787 16.0185 23.8344 16.0185C24.203 16.0185 24.3621 16.3005 24.3621 16.8643V19.4405C24.3621 20.0057 24.203 20.2993 23.8344 20.2993C23.4787 20.2993 23.3067 20.0044 23.3067 19.4405V16.8643ZM26.4843 20.8515C26.4223 20.6666 26.3873 20.373 26.3873 19.932V15.0977H27.5034V19.5996C27.5034 19.8583 27.5034 20.0044 27.5164 20.0303C27.5409 20.2023 27.6263 20.2993 27.7737 20.2993C27.9936 20.2993 28.2264 20.1273 28.4721 19.7716V15.0977H29.5882V21.2201H28.4721V20.545C28.0311 21.0597 27.6147 21.3054 27.2073 21.3054C26.8516 21.3054 26.5943 21.1593 26.4843 20.8515ZM30.7302 28.2749V28.8388H29.6257V28.2749C29.6257 27.7227 29.8107 27.4395 30.1779 27.4395C30.5452 27.4408 30.7302 27.7227 30.7302 28.2749ZM18.7298 15.2943C18.4608 14.5338 18.1918 13.7604 17.9319 13H19.2342L20.1046 16.2267L20.9387 13H22.1906L20.706 17.8951V21.2201H19.4799V17.8951C19.3687 17.2937 19.123 16.435 18.7298 15.2943ZM32.8641 24.3615C32.6429 23.3915 31.845 22.6802 30.9009 22.5703C28.6428 22.3246 26.3602 22.3246 24.0905 22.3246C21.8208 22.3246 19.5381 22.3246 17.293 22.5703C16.3385 22.6802 15.5522 23.3915 15.3194 24.3615C15.0129 25.7349 15 27.2326 15 28.6552C15 30.0661 15 31.5741 15.3194 32.9489C15.5406 33.9188 16.3385 34.6301 17.2826 34.7284C19.5394 34.9858 21.8221 34.9858 24.0918 34.9858C26.3615 34.9858 28.6441 34.9858 30.9022 34.7284C31.845 34.6301 32.6313 33.9188 32.8654 32.9489C33.1719 31.5754 33.1848 30.0661 33.1848 28.6552C33.1835 27.2326 33.1835 25.7349 32.8641 24.3615ZM20.1899 25.6004H18.8785V32.5816H17.6512V25.6004H16.3618V24.4468H20.1899V25.6004ZM23.5033 32.5816H22.4105V31.9194C21.9682 32.4225 21.5518 32.6682 21.1586 32.6682C20.8042 32.6682 20.5456 32.5208 20.4473 32.2143C20.3852 32.0306 20.349 31.7474 20.349 31.3193V26.5225H21.4418V30.9882C21.4418 31.2469 21.4418 31.3814 21.4535 31.4189C21.4793 31.5896 21.5647 31.6763 21.7108 31.6763C21.9333 31.6763 22.1661 31.5056 22.4105 31.1615V26.5238H23.5033V32.5816ZM27.6754 30.7658C27.6754 31.331 27.6496 31.7345 27.5642 31.9918C27.4297 32.4341 27.1219 32.6669 26.6926 32.6669C26.3007 32.6669 25.9192 32.4458 25.5506 31.9918V32.5816H24.4603V24.4468H25.5506V27.1097C25.9062 26.6674 26.2878 26.4475 26.6926 26.4475C27.1219 26.4475 27.4297 26.6803 27.5642 27.1343C27.6496 27.38 27.6754 27.7835 27.6754 28.3487V30.7658ZM31.8217 29.7596H29.6257V30.8266C29.6257 31.3917 29.8107 31.6724 30.1909 31.6724C30.4612 31.6724 30.6202 31.5262 30.6823 31.2314C30.694 31.1706 30.7069 30.9249 30.7069 30.4826H31.823V30.6429C31.823 30.9986 31.823 31.2443 31.7984 31.3542C31.7726 31.5987 31.6743 31.8198 31.5411 32.0164C31.2449 32.4458 30.7923 32.6669 30.2167 32.6669C29.6399 32.6669 29.2093 32.4587 28.8911 32.041C28.6583 31.7461 28.5355 31.2676 28.5355 30.6171V28.4948C28.5355 27.8443 28.6467 27.3787 28.8795 27.0709C29.1989 26.6532 29.6283 26.4449 30.1935 26.4449C30.747 26.4449 31.1751 26.6532 31.4932 27.0709C31.7157 27.3774 31.8256 27.843 31.8256 28.4948V29.7596H31.8217ZM26.5826 28.262V30.8512C26.5826 31.4034 26.4223 31.6724 26.1041 31.6724C25.9192 31.6724 25.7355 31.587 25.5506 31.4034V27.7111C25.7355 27.5261 25.9192 27.4408 26.1041 27.4408C26.4223 27.4408 26.5826 27.7227 26.5826 28.262Z" fill="#010821"/>
</svg>
